<svg width="67" height="66" viewBox="0 0 67 66" fill="none" xmlns="http://www.w3.org/2000/svg">
<path d="M14.9327 11.0471H25.5241V0.443848H14.9327V11.0471ZM24.3473 9.85841H16.1333V1.63255H24.3473V9.85841Z" fill="#C9BD88"/>
<path d="M0.44245 11.0471H11.0457V0.443848H0.44245V11.0471ZM9.84512 9.85841H1.61927V1.63255H9.84512V9.85841Z" fill="#C9BD88"/>
<path d="M0.44245 25.5375H11.0457V14.9342H0.44245V25.5375ZM9.84512 24.3488H1.61927V16.1229H9.84512V24.3488Z" fill="#C9BD88"/>
<path d="M10.4394 11.0471H15.527C15.8599 11.0471 16.1214 10.7856 16.1214 10.4528C16.1214 10.1199 15.8599 9.8584 15.527 9.8584H10.4394C10.1065 9.8584 9.84503 10.1199 9.84503 10.4528C9.84503 10.7856 10.1184 11.0471 10.4394 11.0471Z" fill="#C9BD88"/>
<path d="M10.4513 14.9342H33.6905V16.1229H10.4513V14.9342Z" fill="#C9BD88"/>
<path d="M33.108 0.443848H34.2967V16.1229H33.108V0.443848Z" fill="#C9BD88"/>
<path d="M14.9327 10.4528H16.1214V33.692H14.9327V10.4528Z" fill="#C9BD88"/>
<path d="M10.4394 16.1229C10.7722 16.1229 11.0338 15.8614 11.0338 15.5285V10.4528C11.0338 10.1199 10.7722 9.8584 10.4394 9.8584C10.1066 9.8584 9.84505 10.1199 9.84505 10.4528V15.5404C9.84505 15.8614 10.1184 16.1229 10.4394 16.1229Z" fill="#C9BD88"/>
<path d="M33.0027 0.443848H66.0027V1.63255H33.0027V0.443848Z" fill="#C9BD88"/>
<path d="M0.430504 32.5033H16.1096V33.692H0.430504V32.5033Z" fill="#C9BD88"/>
<path d="M0.430489 32.5033H1.6192V65.5033H0.430489V32.5033Z" fill="#C9BD88"/>
</svg>
