<svg width="51" height="30" viewBox="0 0 51 30" fill="none" xmlns="http://www.w3.org/2000/svg">
<path d="M50.3086 14.7249C50.2777 12.1055 48.087 9.90213 45.3255 9.71723C45.1867 9.70182 45.0478 9.70182 44.909 9.70182C43.3662 9.70182 41.8544 10.2565 40.6665 11.2272L37.2262 14.047L32.3666 10.0562L34.7886 8.03772C35.6834 7.28272 36.2542 6.23495 36.3622 5.06392C36.4702 3.89289 36.1154 2.75267 35.3749 1.84358C34.6189 0.934494 33.5699 0.379795 32.382 0.271937C31.2095 0.164079 30.0679 0.51847 29.1577 1.25807L25.378 4.38596L21.6137 1.25807C19.747 -0.29817 16.9546 -0.036229 15.4119 1.82818C14.656 2.72186 14.3166 3.87748 14.4246 5.04851C14.5326 6.21954 15.0879 7.28272 15.9981 8.03772L18.4202 10.0562L13.4681 14.1086L9.96606 11.2272C8.77816 10.2411 7.26628 9.70182 5.72354 9.70182C5.5847 9.70182 5.44585 9.70182 5.307 9.71723C2.54551 9.90213 0.354829 12.1055 0.323975 14.802V15.0177C0.354829 17.6371 2.54551 19.8405 5.307 20.0254C5.44585 20.0408 5.5847 20.0408 5.72354 20.0408C7.26628 20.0408 8.77816 19.4861 9.96606 18.5154L13.4681 15.634L18.4048 19.671L15.9827 21.6895C15.0879 22.4445 14.5171 23.4923 14.4091 24.6633C14.3011 25.8343 14.656 26.9745 15.3965 27.8836C16.1524 28.7927 17.2015 29.3474 18.3894 29.4553C19.5619 29.5631 20.7035 29.2087 21.6137 28.4691L25.3934 25.3413L29.1577 28.4691C31.0244 30.0254 33.8167 29.7634 35.3595 27.899C36.1154 27.0054 36.4548 25.8497 36.3468 24.6787C36.2388 23.5077 35.6834 22.4445 34.7732 21.6895L32.3511 19.671L37.2262 15.6802L40.6665 18.5154C41.8544 19.5015 43.3662 20.0408 44.909 20.0408C45.0478 20.0408 45.1867 20.0408 45.3255 20.0254C48.087 19.8405 50.2777 17.6371 50.324 14.9252L50.3086 14.7249ZM29.8828 2.16716C30.5461 1.61246 31.3946 1.36593 32.2586 1.44297C33.1225 1.52001 33.9093 1.93603 34.4647 2.59859C35.0201 3.26115 35.2823 4.10861 35.1898 4.97147C35.1126 5.83434 34.6961 6.62016 34.0327 7.17486L31.4255 9.33202L26.2573 5.17178L29.8828 2.16716ZM25.378 5.92679L30.5153 10.0716L25.3625 14.2319L20.2252 10.087L25.378 5.92679ZM16.7078 7.17486C16.0444 6.62016 15.6279 5.83434 15.5508 4.97147C15.4736 4.10861 15.7359 3.26115 16.2758 2.59859C17.4329 1.22725 19.4847 1.04235 20.8732 2.18257L24.4832 5.17178L19.315 9.33202L16.7078 7.17486ZM9.24098 17.6217C8.25363 18.4383 7.00401 18.8852 5.73897 18.8852C5.63098 18.8852 5.50756 18.8852 5.39957 18.8698C3.22431 18.7157 1.51188 17.0208 1.48102 14.9252V14.7249C1.51188 12.7064 3.22431 10.9961 5.39957 10.842C5.50756 10.842 5.61555 10.8266 5.73897 10.8266C7.01944 10.8266 8.26905 11.2889 9.24098 12.0901L12.5887 14.8482L9.24098 17.6217ZM14.3783 14.8636L19.315 10.8266L24.3443 14.879L19.3305 18.916L14.3783 14.8636ZM20.8732 27.5755C20.2098 28.1302 19.3613 28.3767 18.4974 28.2996C17.6334 28.2226 16.8467 27.8066 16.2913 27.144C15.7359 26.4815 15.4736 25.634 15.5662 24.7711C15.6433 23.9083 16.0599 23.1225 16.7232 22.5678L19.3305 20.4106L24.4986 24.5708L20.8732 27.5755ZM25.378 23.8158L20.2407 19.671L25.3934 15.5108L30.5307 19.6556L25.378 23.8158ZM34.0481 22.5678C34.7115 23.1225 35.128 23.9083 35.2052 24.7711C35.2823 25.634 35.0201 26.4815 34.4801 27.144C33.3385 28.5154 31.2866 28.7157 29.8982 27.5755L26.2882 24.5862L31.4563 20.426L34.0481 22.5678ZM31.4563 18.916L26.427 14.8636L31.4409 10.8266L36.3931 14.879L31.4563 18.916ZM45.233 18.8852C45.125 18.8852 45.017 18.9006 44.8936 18.9006C43.6131 18.9006 42.3635 18.4383 41.3915 17.6371L38.0438 14.879L41.3915 12.1209C42.3789 11.3043 43.6285 10.8574 44.8936 10.8574C45.0015 10.8574 45.125 10.8574 45.233 10.8729C47.4082 11.0269 49.1206 12.7218 49.1515 14.8174V15.0177C49.1206 17.0362 47.4082 18.7311 45.233 18.8852Z" fill="#C9BD88"/>
</svg>
