<svg viewBox="0 0 227.06 159.81" xmlns="http://www.w3.org/2000/svg" id="art">
  <defs>
    <style>
      .cls-1 {
        fill: #966a4d;
        stroke-width: 0px;
      }
    </style>
  </defs>
  <path d="M222.09,77.16c-7-15.09-19.97-24.85-33.28-27.02.01-.04.1-.18.1-.18-6.14-1.68-17.03-.49-23.2.61-2.73.48-5.93.81-8.7,1.04-2.5-2.34-5.14-4.61-8.03-6.67.94-.69.41-1.18.41-1.18,0,0-20.76-21.24-49.3-21.24h-.22c3.62-1.97,6.16-5.9,6.16-10.56,0-6.61-4.99-11.97-11.16-11.97h-4.9c-6.16,0-11.16,5.36-11.16,11.97,0,4.66,2.55,8.59,6.16,10.56h-.22s-34.46,1.74-50.61,20.45c0,0-.16.44.7,1.08-2.46,1.67-4.75,3.47-6.93,5.37-7.7.1-12.39-4.1-15.34-4.25-3.33-.14-11.88,5.08-11.88,5.08-2.05,1.2.94,7.94,2.68,14.59,1.16,4.44,2.59,13.88,3.44,19.72-.54,2.97-.9,5.97-.9,9.05,0,36.55,38.23,66.19,85.36,66.19,33.09,0,61.56-14.7,75.72-36.05,11.66,11.12,27.44,15.32,40.68,9.13,18.35-8.56,24.82-33.52,14.42-55.74M201.28,117.52c-4.36,2.02-9.1,2.32-13.74,1.26-8.24-3.12-11.32-8.79-12.44-12.76.99-4.02,1.55-8.17,1.55-12.4,0-8.74-2.31-17.02-6.27-24.64,1.76-1.86,3.74-3.51,6.13-4.61,12.11-5.66,27.48,1.68,34.31,16.37,6.86,14.68,2.6,31.13-9.53,36.77" class="cls-1"></path>
</svg>